<svg xmlns="http://www.w3.org/2000/svg" xmlns:xlink="http://www.w3.org/1999/xlink" viewBox="0 0 510.74 770.84"><defs><style>.cls-1{fill:none;stroke-linecap:round;stroke-miterlimit:10;stroke-width:13px;stroke:url(#linear-gradient);}.cls-2{fill:#f26522;}</style><linearGradient id="linear-gradient" x1="41.81" y1="78.09" x2="359.14" y2="627.73" gradientUnits="userSpaceOnUse"><stop offset="0.08" stop-color="#8dc63f"/><stop offset="0.17" stop-color="#c9ce1e"/><stop offset="0.24" stop-color="#f0d308"/><stop offset="0.28" stop-color="#ffd500"/><stop offset="0.49" stop-color="#f3903f"/><stop offset="0.74" stop-color="#f26522"/></linearGradient></defs><g id="Fruit"><path class="cls-1" d="M412.74,499.05c0,80.67-48.18,151.73-162.16,151.73s-161-71.06-159.25-149.54c2.75-122.35,93.86-133.62,93.86-232.51,0-44.76,8.81-41.34,66-41.34s66,0,66-11-8.84-11-66-11c-55.35,0-66,0-66-11s9.26-11,66-11c57.13,0,66,0,66-11s-9-6.94-66-11.07c-22.77-1.65-54.28-2.63-79.07-32.9C131.57,78.94,147.42,26.1,147.42,26.1s56.63-4.35,95,51.81c23.66,34.67,8.34,83.05,9,82.66"/></g><g id="Text"><path class="cls-2" d="M137,706.71V713a18.83,18.83,0,0,1-18.78,18.78H61.9v18.77H49.39V687.93h68.83A18.83,18.83,0,0,1,137,706.71Zm-12.52,0a6.33,6.33,0,0,0-6.26-6.26H61.9v18.77h56.32a6.28,6.28,0,0,0,6.26-6.26Z"/><path class="cls-2" d="M233.55,706.71V713a18.83,18.83,0,0,1-18.77,18.78H158.45v18.77H145.94V687.93h68.84A18.83,18.83,0,0,1,233.55,706.71Zm-12.52,0a6.33,6.33,0,0,0-6.25-6.26H158.45v18.77h56.33A6.27,6.27,0,0,0,221,713Z"/><path class="cls-2" d="M323.67,750.51H309.18l-11.35-18.77H254.92l-11.36,18.77H229.08L263,694a12.59,12.59,0,0,1,10.73-6.08h5.36A12.57,12.57,0,0,1,289.78,694Zm-33.35-31.29-11.27-18.77h-5.36l-11.27,18.77Z"/><path class="cls-2" d="M356.48,722v28.52H343.87V722l-38.08-34.06h18.77l25.57,22.89,25.66-22.89h18.77Z"/><path class="cls-2" d="M471.27,750.51H456.78l-11.35-18.77H402.52l-11.36,18.77H376.68L410.56,694a12.59,12.59,0,0,1,10.73-6.08h5.37A12.57,12.57,0,0,1,437.38,694Zm-33.35-31.29-11.26-18.77h-5.37L410,719.22Z"/></g></svg>