<svg id="Fruit" xmlns="http://www.w3.org/2000/svg" xmlns:xlink="http://www.w3.org/1999/xlink" viewBox="0 0 680 680"><defs><style>.cls-1{fill:none;stroke-linecap:round;stroke-miterlimit:10;stroke-width:13px;stroke:url(#linear-gradient);}</style><linearGradient id="linear-gradient" x1="129.86" y1="78.09" x2="447.2" y2="627.73" gradientUnits="userSpaceOnUse"><stop offset="0.08" stop-color="#8dc63f"/><stop offset="0.17" stop-color="#c9ce1e"/><stop offset="0.24" stop-color="#f0d308"/><stop offset="0.28" stop-color="#ffd500"/><stop offset="0.49" stop-color="#f3903f"/><stop offset="0.74" stop-color="#f26522"/></linearGradient></defs><path class="cls-1" d="M500.79,499.05c0,80.67-48.17,151.73-162.16,151.73s-161-71.06-159.24-149.54c2.75-122.35,93.86-133.62,93.86-232.51,0-44.76,8.81-41.34,66-41.34s66,0,66-11-8.84-11-66-11c-55.36,0-66,0-66-11s9.26-11,66-11c57.13,0,66,0,66-11s-9-6.94-66-11.07c-22.77-1.65-54.28-2.63-79.07-32.9C219.62,78.94,235.48,26.1,235.48,26.1s56.63-4.35,95,51.81c23.66,34.67,8.33,83.05,9,82.66"/></svg>